<?xml version="1.0" standalone="no"?>
<!DOCTYPE svg PUBLIC "-//W3C//DTD SVG 20010904//EN"
 "http://www.w3.org/TR/2001/REC-SVG-20010904/DTD/svg10.dtd">
<svg version="1.0" xmlns="http://www.w3.org/2000/svg"
 width="535.000000pt" height="506.000000pt" viewBox="0 0 535.000000 506.000000"
 preserveAspectRatio="xMidYMid meet">

<g transform="translate(0.000000,506.000000) scale(0.100000,-0.100000)"
fill="#000000" stroke="none">
<path d="M1948 4040 l-646 -5 -38 -72 c-47 -92 -125 -186 -203 -248 l-62 -49
3 -65 3 -66 305 -5 305 -5 3 -1032 2 -1033 290 0 290 0 2 1033 3 1032 183 3
182 2 0 -1035 0 -1035 540 0 c297 0 540 2 540 4 0 3 -5 17 -11 33 -50 128 -17
326 70 425 17 20 31 38 31 42 0 3 -132 7 -292 8 l-293 3 -3 1028 c-2 810 -5
1028 -15 1032 -26 8 -571 10 -1189 5z"/>
<path d="M3972 1813 c-43 -21 -79 -68 -90 -120 -38 -170 136 -295 282 -203
117 75 113 247 -8 321 -40 24 -137 25 -184 2z"/>
<path d="M1820 1245 c0 -22 4 -25 35 -25 l35 0 0 -105 0 -105 25 0 25 0 0 105
0 105 36 0 c31 0 35 3 32 23 -3 21 -8 22 -95 25 l-93 3 0 -26z"/>
<path d="M2088 1203 c-1 -37 -2 -96 0 -131 l3 -63 77 3 c71 3 77 5 80 26 3 21
0 22 -52 22 -56 0 -56 0 -56 30 0 29 2 30 45 30 41 0 45 2 45 25 0 23 -4 25
-45 25 -41 0 -45 2 -45 25 0 24 3 25 56 25 52 0 55 1 52 23 -3 20 -9 22 -80
25 l-76 3 -4 -68z"/>
<path d="M2330 1140 l0 -130 80 0 c79 0 80 0 80 25 0 23 -3 25 -50 25 -49 0
-50 1 -50 30 0 29 2 30 45 30 41 0 45 2 45 25 0 23 -4 25 -45 25 -41 0 -45 2
-45 25 0 23 3 25 50 25 47 0 50 2 50 25 0 25 -1 25 -80 25 l-80 0 0 -130z"/>
<path d="M2580 1140 l0 -130 80 0 c79 0 80 0 80 25 0 23 -3 25 -50 25 l-50 0
0 105 0 105 -30 0 -30 0 0 -130z"/>
<path d="M2868 1158 c-26 -62 -50 -121 -54 -130 -5 -15 -1 -18 24 -18 26 0 31
5 37 30 6 29 8 30 67 30 57 0 60 -1 71 -30 9 -23 17 -30 39 -30 15 0 28 2 28
4 0 2 -22 56 -50 120 -27 64 -50 121 -50 126 0 6 -15 10 -33 10 -32 0 -33 -2
-79 -112z m81 -36 c-17 -2 -33 -1 -35 1 -3 3 3 21 13 42 l18 37 17 -38 17 -39
-30 -3z"/>
<path d="M3160 1141 l0 -131 68 0 c101 0 144 40 117 107 -7 17 -11 49 -8 70 8
62 -11 77 -101 81 l-76 4 0 -131z m135 54 c0 -16 -8 -21 -42 -23 -40 -3 -43
-2 -43 23 0 25 3 26 43 23 34 -2 42 -7 42 -23z m5 -90 c19 -23 -5 -45 -51 -45
-37 0 -39 2 -39 30 0 28 2 30 39 30 22 0 44 -6 51 -15z"/>
</g>
</svg>
